<svg width="132" height="132" viewBox="213 -2 132 132" fill="none" xmlns="http://www.w3.org/2000/svg">
<path d="M237.279 60.2416C226.165 68.2796 220.316 83.3873 224.8 99.8508C227.823 104.402 231.527 108.47 235.817 112.053C249.661 123.481 269.355 129.776 290.316 127.742C291.973 127.645 293.728 127.354 295.288 127.161C271.987 125.03 251.903 112.537 242.252 94.8149C239.327 89.2948 237.279 83.3873 236.499 77.0924C235.817 71.2818 236.109 65.568 237.279 60.2416Z" fill="url(#paint0_linear_180_400)"/>
<path d="M285.376 51.3051C285.279 51.2077 285.279 51.2077 285.182 51.1103C285.085 51.0129 284.891 51.0129 284.794 50.9155C254.959 32.4118 220.958 52.1816 221.345 82.7614C221.248 87.7282 222.12 92.9872 224.057 98.4409C224.138 98.6678 224.137 98.6004 224.251 98.8305C224.445 99.22 224.736 99.6096 225.026 99.9991C220.473 83.5405 226.285 68.2506 237.329 60.1674C246.628 53.3502 252.537 51.8894 262.224 54.3241C263.096 54.5189 263.968 54.811 264.743 55.1032C264.839 55.2006 271.233 57.7327 274.817 61.6282C276.948 63.9655 278.11 65.2316 279.37 65.8159C279.37 65.8159 279.37 65.8159 279.467 65.8159C279.66 65.9133 279.854 66.0107 280.048 66.0107C280.338 66.1081 280.629 66.2055 281.017 66.2055C281.307 66.3028 281.598 66.3028 281.888 66.3028H281.985H282.082H282.179C283.051 66.3028 284.116 66.2055 285.182 65.8159C286.635 65.329 287.701 64.6472 288.379 63.9655C288.379 63.9655 288.379 63.9655 288.475 63.8681C289.057 63.3812 289.25 62.9916 289.25 62.9916C292.06 59.3883 289.444 54.3241 285.376 51.3051Z" fill="url(#paint1_linear_180_400)"/>
<path d="M341.292 33.5675C341 33.1788 340.61 32.6929 340.318 32.207C339.734 31.6239 339.149 30.8465 338.662 30.1663C338.565 30.1663 338.565 30.1663 338.565 30.1663C338.37 29.9719 338.273 29.7776 338.078 29.5832C329.215 19.0881 319.182 11.7999 308.663 7.13538C308.274 7.03821 307.884 6.84385 307.494 6.6495C307.3 6.55232 307.105 6.55232 306.91 6.45515C290.742 -0.15288 273.794 -0.44441 258.794 4.41443C258.307 4.51161 257.82 4.70596 257.333 4.90032C257.139 4.90032 256.846 4.99749 256.652 5.09467C241.068 10.7309 228.113 22.0034 221.003 37.2602C220.808 37.7461 220.614 38.1348 220.419 38.6207C220.321 38.815 220.224 39.1066 220.127 39.3009C219.834 39.884 219.64 40.467 219.445 41.1473C219.347 41.3416 219.25 41.536 219.25 41.7303C219.153 41.8275 219.153 42.0219 219.055 42.2162C218.958 42.3134 218.958 42.4106 218.958 42.5078C218.958 42.6049 218.86 42.6049 218.86 42.7021C218.763 42.7993 218.763 42.9936 218.666 43.188C218.568 43.4795 218.471 43.7711 218.373 44.0626C216.912 48.6299 216.036 53.3916 215.646 58.5419C215.646 58.5419 215.646 58.5419 215.646 58.6391C215.451 61.8459 215.451 65.15 215.646 68.6483C215.744 69.037 215.744 69.4257 215.744 69.8145C215.841 70.2032 215.841 70.5919 215.841 70.9806C215.938 71.6608 216.036 72.4382 216.133 73.2156C216.231 73.5072 216.231 73.7015 216.231 73.993C216.425 74.9648 216.523 75.9366 216.718 77.0055C216.718 77.1999 216.815 77.3942 216.815 77.6858C216.815 77.9773 216.912 78.1717 217.01 78.4632C217.205 79.6293 217.497 80.6982 217.692 81.8644C217.789 82.0587 217.789 82.2531 217.886 82.5446C217.789 82.1559 217.692 81.7672 217.594 81.3785C217.01 78.8519 216.62 76.3253 216.231 73.8959C216.133 73.0213 216.036 72.2439 215.938 71.3693C215.451 66.7048 215.549 62.3318 215.938 58.1532C216.231 55.5294 216.62 52.9057 217.205 50.4763C217.302 49.9904 217.399 49.4073 217.594 48.9214C217.594 48.7271 217.692 48.6299 217.692 48.4355C229.477 5.7749 286.943 -5.98349 320.643 40.1755L321.423 41.3416C321.423 41.3416 320.838 40.2727 320.643 39.7868C317.234 32.4014 325.416 30.4578 330.676 36.7743C338.078 45.7146 346.649 42.8965 341.292 33.5675Z" fill="url(#paint2_linear_180_400)"/>
<path d="M324.251 45.4454C323.666 44.3835 321.511 41.0905 321.316 40.8009C293.324 2.08826 248.31 3.56529 227.243 29.6311C222.952 34.8443 219.792 41.1977 217.744 48.3416C217.646 48.5347 217.646 48.6312 217.646 48.8243C217.549 49.307 217.354 49.8863 217.256 50.369C216.671 52.7825 216.281 55.3891 215.988 57.9956C215.891 58.8645 215.891 59.8299 215.793 60.6988C215.793 61.4711 215.695 62.2434 215.695 63.0157C215.598 64.0777 215.519 64.9897 215.5 66.105C215.482 67.2204 216.084 78.3615 217.939 83.2689C218.245 84.3628 218.566 85.2378 218.915 86.3045C219.265 87.3712 219.27 87.3862 219.452 87.9307C219.452 87.9307 219.745 88.7084 219.885 89.0912C221.64 93.9182 223.011 96.2255 223.498 96.9979C223.596 97.0944 223.596 97.191 223.596 97.191C223.888 97.7702 223.986 98.0598 223.986 98.0598C223.791 97.5771 223.596 96.9979 223.498 96.5152C221.938 91.6882 221.255 86.9577 221.352 82.5168C221.352 78.9449 221.743 75.566 222.62 72.3801C229.058 48.2451 258.708 34.826 285.237 51.0448C285.696 51.3251 285.752 51.4469 287.188 52.2032C288.846 53.3617 290.504 54.6167 292.162 56.0648C292.65 56.5475 295.088 58.9611 298.209 61.3746C300.062 62.9192 301.915 64.0777 303.866 64.9465C303.866 64.9465 303.866 64.9465 303.964 64.9465C304.159 65.0431 304.354 65.1396 304.549 65.1396C318.106 70.5459 331.858 59.7334 324.251 45.4454Z" fill="url(#paint3_linear_180_400)"/>
<defs>
<linearGradient id="paint0_linear_180_400" x1="254.374" y1="117.056" x2="296.543" y2="7.45806" gradientUnits="userSpaceOnUse">
<stop offset="0.125" stop-color="#0014FF"/>
<stop offset="1" stop-color="#FF3CDF"/>
</linearGradient>
<linearGradient id="paint1_linear_180_400" x1="255.88" y1="37.7579" x2="232.93" y2="115.17" gradientUnits="userSpaceOnUse">
<stop stop-color="#0014FF"/>
<stop offset="1" stop-color="#FF3CDF"/>
</linearGradient>
<linearGradient id="paint2_linear_180_400" x1="198.449" y1="50.794" x2="335.575" y2="41.7759" gradientUnits="userSpaceOnUse">
<stop stop-color="#0014FF"/>
<stop offset="0.869806" stop-color="#FF3CDF"/>
</linearGradient>
<linearGradient id="paint3_linear_180_400" x1="260.231" y1="3.93075" x2="265.104" y2="105.295" gradientUnits="userSpaceOnUse">
<stop stop-color="#0014FF"/>
<stop offset="0.677083" stop-color="#FF3CDF"/>
</linearGradient>
</defs>
</svg>
