<svg width="505" height="129" viewBox="0 0 505 129" fill="none" xmlns="http://www.w3.org/2000/svg">
<path d="M394.632 128C389.545 128 385.464 126.353 382.388 123.06C379.313 119.767 377.124 114.65 375.823 107.71L356.482 8.7327C356.245 7.55649 356.127 6.73314 356.127 6.26266C356.127 2.73404 358.138 0.969727 362.16 0.969727C364.644 0.969727 366.419 1.49902 367.483 2.55761C368.548 3.61619 369.258 5.20407 369.612 7.32124L388.421 108.063C389.013 111.357 389.782 113.65 390.728 114.944C391.674 116.12 393.035 116.708 394.809 116.708C396.702 116.708 398.121 116.062 399.068 114.768C400.014 113.356 400.724 111.18 401.197 108.24L415.304 28.1129C416.132 22.7024 417.577 17.7313 420.179 15.026C422.9 12.2031 426.763 10.179 430.904 10.179C439.421 10.179 444.359 17.1742 446.015 28.1129L459.93 108.24C460.403 111.298 461.113 113.474 462.059 114.768C463.005 116.062 464.425 116.708 466.318 116.708C467.974 116.708 469.275 116.062 470.221 114.768C471.286 113.474 472.114 111.239 472.706 108.063L491.514 7.32124C491.869 5.08645 492.579 3.49858 493.644 2.55761C494.826 1.49902 496.601 0.969727 498.967 0.969727C502.989 0.969727 505 2.73404 505 6.26266C505 6.73314 504.881 7.55649 504.645 8.7327L485.304 107.71C484.003 114.297 481.873 119.355 478.916 122.883C476.077 126.294 471.937 128 466.495 128C461.408 128 457.386 126.353 454.429 123.06C451.59 119.767 449.638 114.709 448.574 107.887L434.803 28.5976C434.449 26.2452 434.051 24.6916 433.341 23.7506C432.75 22.6921 431.481 21.8118 430.416 21.8118C429.233 21.8118 428.689 22.2074 427.979 23.2659C427.387 24.2069 426.871 26.2452 426.516 28.5976L412.553 107.887C411.488 114.709 409.477 119.767 406.52 123.06C403.681 126.353 399.718 128 394.632 128Z" fill="#FFFFFF"/>
<path d="M237.279 60.2416C226.165 68.2796 220.316 83.3873 224.8 99.8508C227.823 104.402 231.527 108.47 235.817 112.053C249.661 123.481 269.355 129.776 290.316 127.742C291.973 127.645 293.728 127.354 295.288 127.161C271.987 125.03 251.903 112.537 242.252 94.8149C239.327 89.2948 237.279 83.3873 236.499 77.0924C235.817 71.2818 236.109 65.568 237.279 60.2416Z" fill="url(#paint0_linear_180_400)"/>
<path d="M285.376 51.3051C285.279 51.2077 285.279 51.2077 285.182 51.1103C285.085 51.0129 284.891 51.0129 284.794 50.9155C254.959 32.4118 220.958 52.1816 221.345 82.7614C221.248 87.7282 222.12 92.9872 224.057 98.4409C224.138 98.6678 224.137 98.6004 224.251 98.8305C224.445 99.22 224.736 99.6096 225.026 99.9991C220.473 83.5405 226.285 68.2506 237.329 60.1674C246.628 53.3502 252.537 51.8894 262.224 54.3241C263.096 54.5189 263.968 54.811 264.743 55.1032C264.839 55.2006 271.233 57.7327 274.817 61.6282C276.948 63.9655 278.11 65.2316 279.37 65.8159C279.37 65.8159 279.37 65.8159 279.467 65.8159C279.66 65.9133 279.854 66.0107 280.048 66.0107C280.338 66.1081 280.629 66.2055 281.017 66.2055C281.307 66.3028 281.598 66.3028 281.888 66.3028H281.985H282.082H282.179C283.051 66.3028 284.116 66.2055 285.182 65.8159C286.635 65.329 287.701 64.6472 288.379 63.9655C288.379 63.9655 288.379 63.9655 288.475 63.8681C289.057 63.3812 289.25 62.9916 289.25 62.9916C292.06 59.3883 289.444 54.3241 285.376 51.3051Z" fill="url(#paint1_linear_180_400)"/>
<path d="M341.292 33.5675C341 33.1788 340.61 32.6929 340.318 32.207C339.734 31.6239 339.149 30.8465 338.662 30.1663C338.565 30.1663 338.565 30.1663 338.565 30.1663C338.37 29.9719 338.273 29.7776 338.078 29.5832C329.215 19.0881 319.182 11.7999 308.663 7.13538C308.274 7.03821 307.884 6.84385 307.494 6.6495C307.3 6.55232 307.105 6.55232 306.91 6.45515C290.742 -0.15288 273.794 -0.44441 258.794 4.41443C258.307 4.51161 257.82 4.70596 257.333 4.90032C257.139 4.90032 256.846 4.99749 256.652 5.09467C241.068 10.7309 228.113 22.0034 221.003 37.2602C220.808 37.7461 220.614 38.1348 220.419 38.6207C220.321 38.815 220.224 39.1066 220.127 39.3009C219.834 39.884 219.64 40.467 219.445 41.1473C219.347 41.3416 219.25 41.536 219.25 41.7303C219.153 41.8275 219.153 42.0219 219.055 42.2162C218.958 42.3134 218.958 42.4106 218.958 42.5078C218.958 42.6049 218.86 42.6049 218.86 42.7021C218.763 42.7993 218.763 42.9936 218.666 43.188C218.568 43.4795 218.471 43.7711 218.373 44.0626C216.912 48.6299 216.036 53.3916 215.646 58.5419C215.646 58.5419 215.646 58.5419 215.646 58.6391C215.451 61.8459 215.451 65.15 215.646 68.6483C215.744 69.037 215.744 69.4257 215.744 69.8145C215.841 70.2032 215.841 70.5919 215.841 70.9806C215.938 71.6608 216.036 72.4382 216.133 73.2156C216.231 73.5072 216.231 73.7015 216.231 73.993C216.425 74.9648 216.523 75.9366 216.718 77.0055C216.718 77.1999 216.815 77.3942 216.815 77.6858C216.815 77.9773 216.912 78.1717 217.01 78.4632C217.205 79.6293 217.497 80.6982 217.692 81.8644C217.789 82.0587 217.789 82.2531 217.886 82.5446C217.789 82.1559 217.692 81.7672 217.594 81.3785C217.01 78.8519 216.62 76.3253 216.231 73.8959C216.133 73.0213 216.036 72.2439 215.938 71.3693C215.451 66.7048 215.549 62.3318 215.938 58.1532C216.231 55.5294 216.62 52.9057 217.205 50.4763C217.302 49.9904 217.399 49.4073 217.594 48.9214C217.594 48.7271 217.692 48.6299 217.692 48.4355C229.477 5.7749 286.943 -5.98349 320.643 40.1755L321.423 41.3416C321.423 41.3416 320.838 40.2727 320.643 39.7868C317.234 32.4014 325.416 30.4578 330.676 36.7743C338.078 45.7146 346.649 42.8965 341.292 33.5675Z" fill="url(#paint2_linear_180_400)"/>
<path d="M324.251 45.4454C323.666 44.3835 321.511 41.0905 321.316 40.8009C293.324 2.08826 248.31 3.56529 227.243 29.6311C222.952 34.8443 219.792 41.1977 217.744 48.3416C217.646 48.5347 217.646 48.6312 217.646 48.8243C217.549 49.307 217.354 49.8863 217.256 50.369C216.671 52.7825 216.281 55.3891 215.988 57.9956C215.891 58.8645 215.891 59.8299 215.793 60.6988C215.793 61.4711 215.695 62.2434 215.695 63.0157C215.598 64.0777 215.519 64.9897 215.5 66.105C215.482 67.2204 216.084 78.3615 217.939 83.2689C218.245 84.3628 218.566 85.2378 218.915 86.3045C219.265 87.3712 219.27 87.3862 219.452 87.9307C219.452 87.9307 219.745 88.7084 219.885 89.0912C221.64 93.9182 223.011 96.2255 223.498 96.9979C223.596 97.0944 223.596 97.191 223.596 97.191C223.888 97.7702 223.986 98.0598 223.986 98.0598C223.791 97.5771 223.596 96.9979 223.498 96.5152C221.938 91.6882 221.255 86.9577 221.352 82.5168C221.352 78.9449 221.743 75.566 222.62 72.3801C229.058 48.2451 258.708 34.826 285.237 51.0448C285.696 51.3251 285.752 51.4469 287.188 52.2032C288.846 53.3617 290.504 54.6167 292.162 56.0648C292.65 56.5475 295.088 58.9611 298.209 61.3746C300.062 62.9192 301.915 64.0777 303.866 64.9465C303.866 64.9465 303.866 64.9465 303.964 64.9465C304.159 65.0431 304.354 65.1396 304.549 65.1396C318.106 70.5459 331.858 59.7334 324.251 45.4454Z" fill="url(#paint3_linear_180_400)"/>
<path d="M6.6476 127.822C4.61139 127.822 2.99442 127.227 1.79665 126.036C0.598882 124.725 0 122.939 0 120.675V22.4096C0 15.7394 1.97631 10.4986 5.92893 6.68703C10.0013 2.8755 15.6308 0.969727 22.8174 0.969727H78.5135C83.1848 0.969727 85.5204 2.8755 85.5204 6.68703C85.5204 8.35458 84.9215 9.66481 83.7238 10.6176C82.526 11.5705 80.7893 12.047 78.5135 12.047H22.9971C20.1225 12.047 17.7868 12.9999 15.9901 14.9056C14.3133 16.8115 13.4748 19.3128 13.4748 22.4096V58.3214H64.859C69.5303 58.3214 71.8659 60.2272 71.8659 64.0386C71.8659 65.8254 71.2071 67.1951 69.8896 68.148C68.6918 69.1008 67.015 69.5773 64.859 69.5773H13.4748V120.675C13.4748 122.939 12.876 124.725 11.6783 126.036C10.4805 127.227 8.80357 127.822 6.6476 127.822Z" fill="#FFFFFF"/>
<path d="M134.355 128C127.049 128 121.359 126.094 117.287 122.282C113.214 118.352 111.179 112.991 111.179 106.202V8.2936C111.179 6.03051 111.778 4.30341 112.975 3.11229C114.173 1.80208 115.79 1.14697 117.826 1.14697C119.982 1.14697 121.659 1.80208 122.857 3.11229C124.054 4.30341 124.653 6.03051 124.653 8.2936V106.559C124.653 109.657 125.492 112.158 127.169 114.064C128.965 115.97 131.302 116.922 134.176 116.922H194.004C198.676 116.922 201.011 118.768 201.011 122.461C201.011 124.248 200.412 125.618 199.215 126.57C198.017 127.523 196.279 128 194.004 128H134.355Z" fill="#FFFFFF"/>
<defs>
<linearGradient id="paint0_linear_180_400" x1="254.374" y1="117.056" x2="296.543" y2="7.45806" gradientUnits="userSpaceOnUse">
<stop offset="0.125" stop-color="#0014FF"/>
<stop offset="1" stop-color="#FF3CDF"/>
</linearGradient>
<linearGradient id="paint1_linear_180_400" x1="255.88" y1="37.7579" x2="232.93" y2="115.17" gradientUnits="userSpaceOnUse">
<stop stop-color="#0014FF"/>
<stop offset="1" stop-color="#FF3CDF"/>
</linearGradient>
<linearGradient id="paint2_linear_180_400" x1="198.449" y1="50.794" x2="335.575" y2="41.7759" gradientUnits="userSpaceOnUse">
<stop stop-color="#0014FF"/>
<stop offset="0.869806" stop-color="#FF3CDF"/>
</linearGradient>
<linearGradient id="paint3_linear_180_400" x1="260.231" y1="3.93075" x2="265.104" y2="105.295" gradientUnits="userSpaceOnUse">
<stop stop-color="#0014FF"/>
<stop offset="0.677083" stop-color="#FF3CDF"/>
</linearGradient>
</defs>
</svg>
